<svg xmlns="http://www.w3.org/2000/svg" xmlns:xlink="http://www.w3.org/1999/xlink" width="378" zoomAndPan="magnify" viewBox="0 0 283.5 56.999997" height="76" preserveAspectRatio="xMidYMid meet" version="1.0"><defs><g/><clipPath id="9340fc1821"><path d="M 125 10 L 148.859375 10 L 148.859375 35 L 125 35 Z M 125 10 " clip-rule="nonzero"/></clipPath><clipPath id="b001dada86"><rect x="0" width="149" y="0" height="44"/></clipPath></defs><g transform="matrix(1, 0, 0, 1, 67, 6)"><g clip-path="url(#b001dada86)"><g fill="#000000" fill-opacity="1"><g transform="translate(0.537819, 34.14779)"><g><path d="M 12.4375 0.484375 C 8.90625 0.484375 6.203125 -0.554688 4.328125 -2.640625 C 2.460938 -4.734375 1.53125 -7.800781 1.53125 -11.84375 L 1.53125 -12.265625 C 1.53125 -16.316406 2.46875 -19.378906 4.34375 -21.453125 C 6.226562 -23.535156 8.9375 -24.578125 12.46875 -24.578125 C 14.800781 -24.578125 16.75 -24.160156 18.3125 -23.328125 C 19.875 -22.492188 21.050781 -21.378906 21.84375 -19.984375 C 22.644531 -18.585938 23.082031 -17.046875 23.15625 -15.359375 L 23.15625 -15.234375 L 18.859375 -15.234375 L 18.859375 -15.328125 C 18.773438 -16.316406 18.488281 -17.226562 18 -18.0625 C 17.507812 -18.894531 16.8125 -19.566406 15.90625 -20.078125 C 15 -20.585938 13.863281 -20.84375 12.5 -20.84375 C 10.394531 -20.84375 8.773438 -20.132812 7.640625 -18.71875 C 6.503906 -17.300781 5.9375 -15.207031 5.9375 -12.4375 L 5.9375 -11.6875 C 5.9375 -8.914062 6.5 -6.816406 7.625 -5.390625 C 8.75 -3.960938 10.363281 -3.25 12.46875 -3.25 C 14.351562 -3.25 15.875 -3.722656 17.03125 -4.671875 C 18.1875 -5.628906 18.804688 -6.992188 18.890625 -8.765625 L 18.890625 -8.921875 L 23.21875 -8.921875 L 23.21875 -8.796875 C 23.15625 -7.085938 22.722656 -5.53125 21.921875 -4.125 C 21.117188 -2.71875 19.929688 -1.597656 18.359375 -0.765625 C 16.785156 0.0664062 14.8125 0.484375 12.4375 0.484375 Z M 12.4375 0.484375 "/></g></g></g><g fill="#000000" fill-opacity="1"><g transform="translate(25.147247, 34.14779)"><g><path d="M 12.65625 0.484375 C 9.0625 0.484375 6.304688 -0.554688 4.390625 -2.640625 C 2.484375 -4.734375 1.53125 -7.800781 1.53125 -11.84375 L 1.53125 -12.3125 C 1.53125 -16.332031 2.484375 -19.378906 4.390625 -21.453125 C 6.304688 -23.535156 9.0625 -24.578125 12.65625 -24.578125 C 16.269531 -24.578125 19.03125 -23.535156 20.9375 -21.453125 C 22.84375 -19.378906 23.796875 -16.332031 23.796875 -12.3125 L 23.796875 -11.84375 C 23.796875 -7.800781 22.84375 -4.734375 20.9375 -2.640625 C 19.03125 -0.554688 16.269531 0.484375 12.65625 0.484375 Z M 5.9375 -11.71875 C 5.9375 -8.925781 6.515625 -6.816406 7.671875 -5.390625 C 8.835938 -3.960938 10.5 -3.25 12.65625 -3.25 C 14.84375 -3.25 16.515625 -3.960938 17.671875 -5.390625 C 18.835938 -6.816406 19.421875 -8.925781 19.421875 -11.71875 L 19.421875 -12.4375 C 19.421875 -15.207031 18.835938 -17.300781 17.671875 -18.71875 C 16.515625 -20.132812 14.84375 -20.84375 12.65625 -20.84375 C 10.5 -20.84375 8.835938 -20.132812 7.671875 -18.71875 C 6.515625 -17.300781 5.9375 -15.207031 5.9375 -12.4375 Z M 5.9375 -11.71875 "/></g></g></g><g fill="#000000" fill-opacity="1"><g transform="translate(50.470933, 34.14779)"><g><path d="M 2.859375 0 L 2.859375 -24.125 L 13.40625 -24.125 C 16.375 -24.125 18.566406 -23.523438 19.984375 -22.328125 C 21.398438 -21.140625 22.109375 -19.421875 22.109375 -17.171875 L 22.109375 -17.140625 C 22.109375 -15.429688 21.675781 -14.054688 20.8125 -13.015625 C 19.945312 -11.984375 18.78125 -11.3125 17.3125 -11 L 17.3125 -10.96875 C 18.476562 -10.6875 19.375 -10.125 20 -9.28125 C 20.625 -8.4375 21.046875 -7.3125 21.265625 -5.90625 L 21.625 -3.578125 C 21.726562 -2.773438 21.867188 -2.085938 22.046875 -1.515625 C 22.222656 -0.941406 22.414062 -0.4375 22.625 0 L 18.15625 0 C 18 -0.363281 17.847656 -0.832031 17.703125 -1.40625 C 17.566406 -1.976562 17.410156 -2.753906 17.234375 -3.734375 L 16.8125 -6.078125 C 16.664062 -7.023438 16.238281 -7.75 15.53125 -8.25 C 14.832031 -8.75 13.703125 -9 12.140625 -9 L 7.203125 -9 L 7.203125 0 Z M 7.203125 -12.59375 L 12.953125 -12.59375 C 14.398438 -12.59375 15.554688 -12.914062 16.421875 -13.5625 C 17.296875 -14.21875 17.734375 -15.28125 17.734375 -16.75 L 17.734375 -16.84375 C 17.734375 -18 17.375 -18.894531 16.65625 -19.53125 C 15.9375 -20.164062 14.8125 -20.484375 13.28125 -20.484375 L 7.203125 -20.484375 Z M 7.203125 -12.59375 "/></g></g></g><g fill="#000000" fill-opacity="1"><g transform="translate(73.911568, 34.14779)"><g><path d="M 7.859375 0 L 7.859375 -20.484375 L 0.15625 -20.484375 L 0.15625 -24.125 L 19.9375 -24.125 L 19.9375 -20.484375 L 12.234375 -20.484375 L 12.234375 0 Z M 7.859375 0 "/></g></g></g><g fill="#000000" fill-opacity="1"><g transform="translate(94.008192, 34.14779)"><g><path d="M 2.859375 0 L 2.859375 -24.125 L 19.9375 -24.125 L 19.9375 -20.484375 L 7.203125 -20.484375 L 7.203125 -14.03125 L 18.671875 -14.03125 L 18.671875 -10.625 L 7.203125 -10.625 L 7.203125 -3.640625 L 20.09375 -3.640625 L 20.09375 0 Z M 2.859375 0 "/></g></g></g><g fill="#000000" fill-opacity="1"><g transform="translate(115.143736, 34.14779)"><g/></g></g><g clip-path="url(#9340fc1821)"><g fill="#000000" fill-opacity="1"><g transform="translate(125.338138, 34.14779)"><g><path d="M 0.359375 0 L 8.078125 -12.4375 L 1 -24.125 L 6.234375 -24.125 L 10.96875 -15.78125 L 11.59375 -14.515625 L 11.65625 -14.515625 L 12.234375 -15.78125 L 16.984375 -24.125 L 22.203125 -24.125 L 15.125 -12.4375 L 22.859375 0 L 17.625 0 L 12.265625 -9.125 L 11.625 -10.421875 L 11.59375 -10.421875 L 10.96875 -9.125 L 5.578125 0 Z M 0.359375 0 "/></g></g></g></g></g></g></svg>